# xmcd
#
# Track frame offsets: 
#        183
#        18495
#        43578
#        63678
#        82928
#        93128
#        111108
#        132420
#        151703
#        169013
#        184713
#        201643
#        216755
#        242300
#        267150
#
# Disc length: 3772 seconds
#
# Revision: 3
# Processed by: cddbd v1.5.2PL0 Copyright (c) Steve Scherf et al.
# Submitted via: ExactAudioCopy v0.99pb4
#
DISCID=c40eba0f
DTITLE=Santana - The Very Best Of Santana - Disc 2
DYEAR=2000
DGENRE=Classic Rock
TTITLE0=She's Not There
TTITLE1=The Healer
TTITLE2=Hold On
TTITLE3=Jingo La Ba
TTITLE4=Carnaval
TTITLE5=Nowhere To Run
TTITLE6=I Love You Much Too Much
TTITLE7=Oye Como Va
TTITLE8=Lightnin'
TTITLE9=Let The Children Play
TTITLE10=Life Is A Lady/Holiday
TTITLE11=Say It Again
TTITLE12=Let It Shine
TTITLE13=No One To Depend On
TTITLE14=The Sensative Kind
EXTD=
EXTT0=
EXTT1=
EXTT2=
EXTT3=
EXTT4=
EXTT5=
EXTT6=
EXTT7=
EXTT8=
EXTT9=
EXTT10=
EXTT11=
EXTT12=
EXTT13=
EXTT14=
PLAYORDER=
